<?xml version="1.0" standalone="no"?>
<!DOCTYPE svg PUBLIC "-//W3C//DTD SVG 20010904//EN"
 "http://www.w3.org/TR/2001/REC-SVG-20010904/DTD/svg10.dtd">
<svg version="1.0" xmlns="http://www.w3.org/2000/svg"
 width="900.000000pt" height="900.000000pt" viewBox="0 0 900.000000 900.000000"
 preserveAspectRatio="xMidYMid meet">

<g transform="translate(0.000000,900.000000) scale(0.100000,-0.100000)"
fill="red" stroke="none">
<path d="M4330 8680 c-138 -11 -371 -62 -455 -100 -11 -5 -45 -19 -75 -30
-205 -79 -472 -266 -638 -450 -57 -63 -192 -240 -205 -270 -4 -8 -21 -37 -37
-65 -17 -27 -35 -59 -40 -70 -6 -11 -19 -33 -30 -50 -11 -16 -23 -37 -27 -45
-4 -8 -19 -35 -34 -60 -15 -25 -41 -70 -58 -100 -32 -57 -108 -188 -126 -218
-6 -9 -29 -51 -53 -92 -23 -41 -47 -82 -52 -90 -5 -8 -11 -22 -15 -30 -8 -20
-26 -49 -52 -87 -13 -17 -23 -34 -23 -38 0 -4 -22 -44 -49 -89 -26 -44 -70
-119 -97 -166 -27 -46 -53 -92 -59 -101 -5 -10 -30 -53 -55 -96 -25 -43 -50
-87 -57 -98 -7 -11 -15 -27 -19 -35 -4 -8 -24 -42 -44 -75 -20 -33 -39 -67
-43 -75 -4 -8 -21 -37 -37 -65 -17 -27 -35 -59 -40 -70 -6 -11 -19 -33 -30
-50 -11 -16 -24 -39 -30 -50 -5 -11 -23 -42 -40 -70 -16 -27 -33 -57 -37 -65
-4 -8 -30 -53 -58 -100 -28 -47 -54 -92 -58 -100 -4 -8 -21 -37 -37 -65 -17
-27 -35 -59 -40 -70 -6 -11 -19 -33 -30 -50 -11 -16 -24 -39 -30 -50 -5 -11
-23 -42 -40 -70 -16 -27 -34 -59 -39 -71 -5 -12 -26 -46 -45 -77 -20 -31 -36
-59 -36 -62 0 -4 -25 -47 -55 -96 -30 -49 -55 -93 -55 -98 0 -4 -8 -19 -19
-32 -10 -13 -33 -51 -50 -84 -18 -33 -43 -78 -57 -100 -13 -22 -34 -58 -46
-80 -12 -22 -28 -49 -35 -60 -7 -11 -15 -27 -19 -35 -4 -8 -24 -42 -44 -75
-20 -33 -39 -67 -43 -75 -4 -8 -16 -28 -27 -45 -11 -16 -23 -37 -27 -45 -4 -8
-24 -43 -45 -78 -21 -34 -38 -64 -38 -67 0 -3 -13 -26 -29 -52 -109 -179 -157
-287 -200 -458 -35 -137 -42 -171 -53 -270 -23 -212 -1 -497 52 -670 44 -141
56 -174 103 -275 53 -116 57 -124 87 -170 16 -25 33 -52 37 -60 27 -58 202
-263 300 -351 96 -86 114 -99 193 -152 41 -27 86 -57 100 -66 47 -33 235 -119
325 -149 120 -41 150 -49 285 -75 l115 -22 2375 0 c2259 0 2380 1 2470 18 177
34 218 45 350 92 54 20 253 118 295 145 17 11 37 23 45 27 8 4 20 11 25 15 6
4 39 29 75 55 96 69 267 234 337 326 57 74 111 153 133 192 12 22 30 54 41 70
10 17 21 37 25 45 3 8 16 38 28 65 48 107 56 126 56 143 0 10 4 22 9 28 10 9
17 36 48 164 32 138 46 251 50 403 2 88 0 164 -5 170 -5 7 -12 41 -16 77 -9
90 -33 202 -62 287 -13 39 -24 77 -24 84 0 18 -108 235 -142 285 -15 23 -28
45 -28 48 0 3 -17 34 -38 68 -21 35 -41 70 -45 78 -4 8 -16 29 -26 45 -11 17
-30 48 -42 70 -12 22 -28 51 -36 65 -8 14 -23 39 -33 55 -11 17 -24 39 -30 50
-5 11 -23 43 -40 70 -16 28 -33 57 -37 65 -4 8 -23 42 -43 75 -20 33 -40 67
-44 75 -4 8 -12 24 -19 35 -7 11 -59 101 -116 200 -57 99 -111 191 -120 205
-8 14 -22 36 -29 50 -35 65 -54 97 -72 125 -11 17 -23 37 -27 45 -3 8 -16 31
-28 50 -12 20 -37 62 -55 95 -18 33 -43 78 -56 100 -13 22 -27 47 -31 55 -4 8
-24 43 -45 78 -21 34 -38 64 -38 67 0 3 -17 33 -38 67 -21 35 -54 90 -72 123
-18 33 -40 72 -49 86 -9 15 -34 57 -55 95 -22 38 -63 107 -91 154 -28 47 -54
92 -58 100 -4 8 -21 38 -37 65 -17 28 -35 59 -41 70 -5 11 -15 29 -22 40 -7
11 -28 47 -47 80 -19 33 -40 69 -47 80 -7 11 -15 27 -19 35 -8 16 -78 135 -94
160 -6 8 -13 22 -17 30 -4 8 -31 55 -60 103 -29 48 -53 90 -53 94 0 3 -18 34
-40 69 -22 35 -40 66 -40 69 0 2 -18 34 -40 70 -22 36 -40 67 -40 69 0 3 -68
120 -117 201 -7 11 -17 31 -23 45 -6 14 -22 39 -36 57 -13 17 -24 34 -24 38 0
3 -4 11 -10 18 -5 7 -37 48 -71 92 -133 173 -352 361 -544 467 -77 42 -232
110 -325 141 -195 66 -477 96 -710 77z m-940 -2426 c118 -27 220 -100 291
-208 159 -243 69 -562 -196 -691 -138 -68 -278 -67 -418 3 -240 120 -335 405
-216 648 35 72 141 175 219 213 107 52 202 62 320 35z m2425 1 c176 -46 323
-198 360 -372 22 -100 22 -2764 1 -2865 -67 -316 -407 -480 -692 -335 -69 35
-152 113 -194 183 -64 106 -69 145 -69 546 -1 326 -3 360 -20 400 -24 56 -72
105 -130 132 -43 20 -66 21 -341 26 l-295 5 -78 37 c-205 97 -317 311 -274
522 28 134 96 237 204 308 119 79 130 81 458 88 202 4 299 10 320 18 50 22 93
60 122 110 l28 47 5 390 c6 379 6 392 29 449 95 239 335 371 566 311z m-2427
-1340 c162 -37 303 -170 352 -334 20 -65 21 -88 18 -826 l-3 -760 -42 -86
c-110 -224 -355 -332 -581 -255 -138 46 -245 147 -304 287 l-23 54 -3 755 c-2
494 1 772 8 803 17 81 61 158 131 229 124 126 276 172 447 133z"/>
</g>
</svg>
